<?xml version="1.0" encoding="utf-8"?>
<svg version="1.1" xmlns="http://www.w3.org/2000/svg" xmlns:xlink="http://www.w3.org/1999/xlink" height="26" width="29">
  <defs>
    <path id="path-1" opacity="1" fill-rule="evenodd" d="M20.583472448098842,0.8504293765966972 C19.60756321264706,0.31050912586583784 18.488210375687085,0 17.293987643665098,0 C15.186954436015075,0 13.300014082587559,0.9642414864758087 12.054053104983412,2.4762381153045894 C10.802206559760137,0.9642414864758087 8.917045563984916,0 6.807138009358104,0 C5.615789624312903,0 4.4984898923363446,0.31050912586583784 3.5203906782355867,0.8504293765966972 C1.4218436378503605,2.0175533198135316 0,4.261493771234425 0,6.840272748821404 C0,7.578539466406801 0.11962758370054054,8.286566251415625 0.3362985962840138,8.948958229081613 C1.5047890791804834,14.223627195870305 12.054053104983412,20.87599999999999 12.054053104983412,20.87599999999999 C12.054053104983412,20.87599999999999 22.596336573842716,14.223764650109295 23.766469540725918,8.948958229081617 C23.98314055330939,8.286566251415625 24.103999999999985,7.577577286733911 24.103999999999985,6.8402727488214055 C24.103999999999985,4.262455950907318 22.682156362149623,2.019202770681346 20.583472448098842,0.8504293765966972Z"/>
    <linearGradient id="linearGradient-2" x1="0.5" y1="0" x2="0.5" y2="1">
      <stop offset="0" stop-color="rgb(255,51,102)" stop-opacity="1"/>
      <stop offset="1" stop-color="rgb(255,51,102)" stop-opacity="1"/>
    </linearGradient>
    <rect id="rect-3" opacity="1" x="14" y="9" width="13" height="13"/>
    <filter id="filter-4" filterUnits="userSpaceOnUse" x="-50%" y="-50%" width="200%" height="200%">
      <feOffset in="SourceAlpha" result="shadow-1-feOffset-shadow" dx="-2" dy="0"/>
      <feGaussianBlur in="shadow-1-feOffset-shadow" result="shadow-1-feGaussianBlur-shadow" stdDeviation="2"/>
      <feColorMatrix in="shadow-1-feGaussianBlur-shadow" result="shadow-1-feColorMatrix-shadow" type="matrix" values="0 0 0 0 0  0 0 0 0 0  0 0 0 0 0  0 0 0 0.1 0"/>
    </filter>
    <path id="path-5" opacity="1" fill-rule="evenodd" d="M20.525390625,9 C16.95298046875,9 14,11.9021484375 14,15.474609375 C14,19.047070312499997 16.95298046875,22 20.525390625,22 C24.09780078125,22 27,19.047070312499997 27,15.474609375 C27,11.9021484375 24.09780078125,9 20.525390625,9Z"/>
    <path id="path-6" opacity="1" fill-rule="evenodd" d="M27,15.474609375 C27,19.047070312499997 24.09780078125,22 20.525390625,22 L20.525390625,9 C24.09780078125,9 27,11.9021484375 27,15.474609375Z"/>
    <path id="path-7" opacity="1" fill-rule="evenodd" d="M20.525390625,10.5234375 C17.798386718750002,10.5234375 15.5234375,12.747630859375 15.5234375,15.474609375 C15.5234375,18.201587890625 17.798386718750002,20.4765625 20.525390625,20.4765625 C23.252394531249998,20.4765625 25.4765625,18.201587890625 25.4765625,15.474609375 C25.4765625,12.747630859375 23.252394531249998,10.5234375 20.525390625,10.5234375Z"/>
    <path id="path-8" opacity="1" fill-rule="evenodd" d="M25.4765625,15.474609375 C25.4765625,18.201587890625 23.25239453125,20.4765625 20.525390625,20.4765625 L20.525390625,10.5234375 C23.25239453125,10.5234375 25.4765625,12.747630859375 25.4765625,15.474609375Z"/>
    <path id="path-9" opacity="1" fill-rule="evenodd" d="M21.28709631633319,15.093755999884706 L20.90623694133319,15.093755999884706 L20.90623694133319,13.570318499884706 L21.28709631633319,13.570318499884706 C21.50041418742694,13.570318499884706 21.66795569133319,13.737860003790956 21.66795569133319,13.951177874884706 C21.66795569133319,14.453893939337831 22.42967444133319,14.453893939337831 22.42967444133319,13.951177874884706 C22.42967444133319,13.318914691290956 21.91935949992694,12.808599749884706 21.28709631633319,12.808599749884706 L20.90623694133319,12.808599749884706 L20.90623694133319,12.427740374884706 C20.90623694133319,12.176336566290956 20.71580725383319,12.046880999884706 20.52537756633319,12.046880999884706 C20.33494787883319,12.046880999884706 20.14451819133319,12.176336566290956 20.14451819133319,12.427740374884706 L20.14451819133319,12.808599749884706 L19.71287756633319,12.808599749884706 C19.08061438273944,12.808599749884706 18.57029944133319,13.318914691290956 18.57029944133319,13.951177874884706 L18.57029944133319,14.712896624884706 C18.57029944133319,15.345159808478456 19.08061438273944,15.855474749884706 19.71287756633319,15.855474749884706 L20.14451819133319,15.855474749884706 L20.14451819133319,17.429693499884706 L19.71287756633319,17.429693499884706 C19.49955969523944,17.429693499884706 19.33201819133319,17.262151995978456 19.33201819133319,17.048834124884706 C19.33201819133319,16.54611806043158 18.57029944133319,16.54611806043158 18.57029944133319,17.048834124884706 C18.57029944133319,17.681097308478456 19.08061438273944,18.191412249884706 19.71287756633319,18.191412249884706 L20.14451819133319,18.191412249884706 L20.14451819133319,18.572271624884706 C20.14451819133319,18.823675433478456 20.33494787883319,18.953130999884706 20.52537756633319,18.953130999884706 C20.71580725383319,18.953130999884706 20.90623694133319,18.823675433478456 20.90623694133319,18.572271624884706 L20.90623694133319,18.191412249884706 L21.28709631633319,18.191412249884706 C21.91935949992694,18.191412249884706 22.42967444133319,17.681097308478456 22.42967444133319,17.048834124884706 L22.42967444133319,16.236334124884706 C22.42967444133319,15.604070941290956 21.91935949992694,15.093755999884706 21.28709631633319,15.093755999884706 L20.14451819133319,15.093755999884706 L19.71287756633319,15.093755999884706 C19.49955969523944,15.093755999884706 19.33201819133319,14.926214495978456 19.33201819133319,14.712896624884706 L19.33201819133319,13.951177874884706 C19.33201819133319,13.737860003790956 19.49955969523944,13.570318499884706 19.71287756633319,13.570318499884706 L20.14451819133319,13.570318499884706 L20.14451819133319,15.093755999884706 L21.28709631633319,17.429693499884706 C21.50041418742694,17.429693499884706 21.66795569133319,17.262151995978456 21.66795569133319,17.048834124884706 L21.66795569133319,16.236334124884706 C21.66795569133319,16.023016253790956 21.50041418742694,15.855474749884706 21.28709631633319,15.855474749884706 L20.90623694133319,15.855474749884706 L20.90623694133319,17.429693499884706 L21.28709631633319,17.429693499884706 L21.28709631633319,15.093755999884706Z"/>
    <path id="path-10" opacity="1" fill-rule="evenodd" d="M20.90623694133319,15.093755999884706 L21.28709631633319,15.093755999884706 C21.91935949992694,15.093755999884706 22.42967444133319,15.604070941290956 22.42967444133319,16.236334124884706 L22.42967444133319,17.048834124884706 C22.42967444133319,17.681097308478456 21.91935949992694,18.191412249884706 21.28709631633319,18.191412249884706 L20.90623694133319,18.191412249884706 L20.90623694133319,18.572271624884706 C20.90623694133319,18.823675433478456 20.71580725383319,18.953130999884706 20.52537756633319,18.953130999884706 L20.52537756633319,12.046880999884706 C20.71580725383319,12.046880999884706 20.90623694133319,12.176336566290956 20.90623694133319,12.427740374884706 L20.90623694133319,12.808599749884706 L21.28709631633319,12.808599749884706 C21.91935949992694,12.808599749884706 22.42967444133319,13.318914691290956 22.42967444133319,13.951177874884706 C22.42967444133319,14.453893939337831 21.66795569133319,14.453893939337831 21.66795569133319,13.951177874884706 C21.66795569133319,13.737860003790956 21.50041418742694,13.570318499884706 21.28709631633319,13.570318499884706 L20.90623694133319,13.570318499884706 L20.90623694133319,15.093755999884706 L21.28709631633319,17.429693499884706 C21.50041418742694,17.429693499884706 21.66795569133319,17.262151995978456 21.66795569133319,17.048834124884706 L21.66795569133319,16.236334124884706 C21.66795569133319,16.023016253790956 21.50041418742694,15.855474749884706 21.28709631633319,15.855474749884706 L20.90623694133319,15.855474749884706 L20.90623694133319,17.429693499884706 L21.28709631633319,17.429693499884706 L20.90623694133319,15.093755999884706Z"/>
  </defs>
  <g opacity="1">
    <g opacity="1">
      <g opacity="1">
        <use xlink:href="#path-1" fill="url(#linearGradient-2)"/>
      </g>
    </g>
    <g opacity="1">
      <use xlink:href="#rect-3" fill="black" filter="url(#filter-4)" stroke="black" stroke-opacity="0" stroke-width="0"/>
      <g opacity="1">
        <use xlink:href="#path-5" fill="rgb(254,219,65)" fill-opacity="1"/>
      </g>
      <g opacity="1">
        <use xlink:href="#path-6" fill="rgb(255,204,51)" fill-opacity="1"/>
      </g>
      <g opacity="1">
        <use xlink:href="#path-7" fill="rgb(254,168,50)" fill-opacity="1"/>
      </g>
      <g opacity="1">
        <use xlink:href="#path-8" fill="rgb(254,153,35)" fill-opacity="1"/>
      </g>
      <g opacity="1">
        <use xlink:href="#path-9" fill="rgb(254,219,65)" fill-opacity="1"/>
      </g>
      <g opacity="1">
        <use xlink:href="#path-10" fill="rgb(255,204,51)" fill-opacity="1"/>
      </g>
    </g>
  </g>
</svg>